<svg width="28" height="26" fill="none" xmlns="http://www.w3.org/2000/svg"><path d="M13.064.693a1.047 1.047 0 011.874 0L18.3 7.505c.152.308.447.522.787.572l7.518 1.092a1.044 1.044 0 01.579 1.782l-5.44 5.303c-.246.24-.358.586-.3.925l1.283 7.488a1.046 1.046 0 01-1.517 1.102l-6.724-3.535a1.044 1.044 0 00-.973 0L6.79 25.769a1.047 1.047 0 01-1.517-1.102l1.284-7.488a1.045 1.045 0 00-.301-.925l-5.44-5.303a1.045 1.045 0 01.58-1.782l7.519-1.092c.34-.05.635-.264.787-.572L13.064.693z" fill="url(#paint0_linear)"/><defs><linearGradient id="paint0_linear" x1="1" y1="13" x2="28" y2="13" gradientUnits="userSpaceOnUse"><stop offset=".484" stop-color="#FABD48"/><stop offset=".484" stop-color="#CED7E0"/><stop offset="1" stop-color="#CED7E0"/></linearGradient></defs></svg>